# xmcd
#
# Track frame offsets: 
#        150
#        22112
#        45057
#        51857
#        66040
#        78852
#        99512
#        121417
#        134142
#
# Disc length: 2097 seconds
#
# Revision: 5
# Processed by: cddbd v1.5.2PL0 Copyright (c) Steve Scherf et al.
# Submitted via: ExactAudioCopy v0.99pb4
#
DISCID=72082f09
DTITLE=M M Kreem, Anand Bakshi and VA - Zakhm
DYEAR=2001
DGENRE=Hindi Film Music
TTITLE0=Hum Yahan - Kumar Sanu
TTITLE1=Raat Sari - Alka Yagnik
TTITLE2=Maa Ne Kaha (SAD) - M M Kreem
TTITLE3=Gali Mein Chand (SAD) - Alka Yagnik
TTITLE4=Maa Ne Kaha - Chitra
TTITLE5=Padh Likh Ke - Alka Yagnik
TTITLE6=Hum Yahan - Alka Yagnik
TTITLE7=Maa Ne Kaha - M M Kreem
TTITLE8=Gali Mein Chand - Alka Yagnik
EXTD=CDF 1100092
EXTT0=Hum Yahan - Kumar Sanu
EXTT1=Raat Sari - Alka Yagnik
EXTT2=Maa Ne Kaha (SAD) - M M Karim
EXTT3=Gali Mein Chand (SAD) - Alka Yagnik
EXTT4=Maa Ne Kaha - Chitra
EXTT5=Padh Likh Ke - Alka Yagnik
EXTT6=Hum Yahan - Alka Yagnik
EXTT7=Maa Ne Kaha - M M Karim
EXTT8=Gali Mein Chand - Alka Yagnik
PLAYORDER=
